<?xml version="1.0" encoding="UTF-8" standalone="no"?>
<svg
   xmlns:dc="http://purl.org/dc/elements/1.1/"
   xmlns:cc="http://creativecommons.org/ns#"
   xmlns:rdf="http://www.w3.org/1999/02/22-rdf-syntax-ns#"
   xmlns:svg="http://www.w3.org/2000/svg"
   xmlns="http://www.w3.org/2000/svg"
   xmlns:sodipodi="http://sodipodi.sourceforge.net/DTD/sodipodi-0.dtd"
   xmlns:inkscape="http://www.inkscape.org/namespaces/inkscape"
   version="1.1"
   viewBox="0 0 44 44"
   enable-background="new 0 0 44 44"
   width="512px"
   height="512px"
   id="svg4"
   sodipodi:docname="plus.svg"
   inkscape:version="0.92.2 (5c3e80d, 2017-08-06)">
  <metadata
     id="metadata10">
    <rdf:RDF>
      <cc:Work
         rdf:about="">
        <dc:format>image/svg+xml</dc:format>
        <dc:type
           rdf:resource="http://purl.org/dc/dcmitype/StillImage" />
      </cc:Work>
    </rdf:RDF>
  </metadata>
  <defs
     id="defs8" />
  <sodipodi:namedview
     pagecolor="#ffffff"
     bordercolor="#666666"
     borderopacity="1"
     objecttolerance="10"
     gridtolerance="10"
     guidetolerance="10"
     inkscape:pageopacity="0"
     inkscape:pageshadow="2"
     inkscape:window-width="1858"
     inkscape:window-height="1057"
     id="namedview6"
     showgrid="false"
     inkscape:zoom="0.921875"
     inkscape:cx="286.1652"
     inkscape:cy="66.542885"
     inkscape:window-x="-8"
     inkscape:window-y="-8"
     inkscape:window-maximized="1"
     inkscape:current-layer="svg4" />
  <path
     d="M22,0C9.8,0,0,9.8,0,22s9.8,22,22,22s22-9.8,22-22S34.2,0,22,0z M34,23c0,0.6-0.4,1-1,1h-8.5c-0.3,0-0.5,0.2-0.5,0.5V33  c0,0.6-0.4,1-1,1h-2c-0.6,0-1-0.4-1-1v-8.5c0-0.3-0.2-0.5-0.5-0.5H11c-0.6,0-1-0.4-1-1v-2c0-0.6,0.4-1,1-1h8.5  c0.3,0,0.5-0.2,0.5-0.5V11c0-0.6,0.4-1,1-1h2c0.6,0,1,0.4,1,1v8.5c0,0.3,0.2,0.5,0.5,0.5H33c0.6,0,1,0.4,1,1V23z"
     fill="#006DF0"
     id="path2"
     style="fill:#ff0000;fill-opacity:1" />
  <path
     style="fill:#fffffb;fill-opacity:1;stroke:#090000;stroke-width:1;stroke-miterlimit:4;stroke-dasharray:none;stroke-opacity:1"
     d="m 241.36508,395.17557 c -2.35415,-0.47817 -4.87989,-2.06604 -6.21249,-3.90563 -2.39493,-3.30612 -2.28114,-0.49121 -2.28114,-56.42867 0,-50.04227 -0.0144,-51.03833 -0.75888,-52.57627 -0.41739,-0.86221 -1.32345,-1.90904 -2.01346,-2.3263 -1.22946,-0.74347 -2.30243,-0.7625 -53.60444,-0.95041 l -52.34988,-0.19176 -2.10933,-1.18282 c -2.33207,-1.30771 -4.32246,-3.83263 -4.99753,-6.33965 -0.26194,-0.97277 -0.36574,-6.70359 -0.29285,-16.16799 l 0.11292,-14.6611 1.11652,-2.01511 c 1.28246,-2.3146 2.96868,-3.73377 5.64439,-4.75046 1.79462,-0.6819 4.11239,-0.71335 53.16751,-0.7214 49.97243,-0.008 51.33332,-0.0276 52.93398,-0.75408 1.25421,-0.56925 1.8193,-1.13434 2.38855,-2.38855 0.72643,-1.60053 0.74587,-2.95918 0.75408,-52.68539 0.009,-55.45426 -0.0847,-52.97199 2.12255,-56.15702 0.55892,-0.80651 1.64939,-1.88455 2.42329,-2.39564 2.95613,-1.95227 3.47299,-2.00787 18.66527,-2.00787 13.03764,0 14.34398,0.0594 16.08516,0.7309 2.51187,0.96878 4.90398,3.23466 6.01942,5.70179 l 0.90635,2.00465 0.19176,52.17517 c 0.1827,49.71119 0.22487,52.22569 0.89281,53.24492 0.38558,0.58836 1.42107,1.39666 2.30109,1.79622 1.54429,0.70116 3.37839,0.72677 52.63388,0.7349 44.15948,0.007 51.29397,0.0857 52.96501,0.58192 2.42499,0.72014 5.11237,3.04443 6.31184,5.45905 l 0.90882,1.82952 v 15.14886 c 0,13.70174 -0.0649,15.28707 -0.67987,16.59559 -1.00725,2.1434 -3.30888,4.51388 -5.26462,5.42212 -1.71721,0.79747 -1.98593,0.80242 -53.88393,0.99323 -48.97374,0.18004 -52.23399,0.23321 -53.40093,0.87089 -0.68355,0.37352 -1.54646,1.14247 -1.91758,1.70876 -0.63322,0.96625 -0.68657,4.2418 -0.86652,53.2048 l -0.19176,52.17517 -0.88661,1.95877 c -1.10016,2.43055 -3.12688,4.44418 -5.63315,5.59674 -1.87854,0.86388 -2.19861,0.88315 -15.72414,0.94655 -7.59361,0.0356 -14.55785,-0.0879 -15.47609,-0.2744 z"
     id="path4548"
     inkscape:connector-curvature="0"
     transform="scale(0.0859375)" />
</svg>
